<svg width="128" height="125" viewBox="0 0 128 125" fill="none" xmlns="http://www.w3.org/2000/svg">
<g clip-path="url(#clip0_122_349)">
<path d="M81.6406 28.0205H74.83V86.211C74.83 87.124 74.6506 88.0281 74.302 88.8716C73.9533 89.715 73.4423 90.4815 72.7982 91.127C72.154 91.7726 71.3892 92.2847 70.5476 92.6341C69.7059 92.9835 68.8038 93.1633 67.8928 93.1633H15.823V93.2299C15.823 94.1428 16.0024 95.0469 16.351 95.8904C16.6997 96.7339 17.2107 97.5003 17.8548 98.1459C18.499 98.7915 19.2638 99.3036 20.1054 99.653C20.9471 100.002 21.8492 100.182 22.7602 100.182H81.6406C82.5516 100.182 83.4537 100.002 84.2954 99.653C85.137 99.3036 85.9018 98.7915 86.546 98.1459C87.1902 97.5003 87.7012 96.7339 88.0498 95.8904C88.3984 95.0469 88.5779 94.1428 88.5779 93.2299V34.9728C88.5779 33.129 87.847 31.3606 86.546 30.0568C85.245 28.753 83.4805 28.0205 81.6406 28.0205Z" fill="#F2F2F2"/>
<path d="M113.926 120.494C114.046 120.5 114.166 120.468 114.268 120.403C114.37 120.339 114.449 120.244 114.496 120.133C114.543 120.021 114.554 119.898 114.528 119.78C114.502 119.661 114.441 119.554 114.352 119.472L114.312 119.311C114.317 119.298 114.323 119.285 114.328 119.273C114.45 118.985 114.653 118.74 114.913 118.568C115.173 118.396 115.478 118.305 115.79 118.306C116.101 118.307 116.406 118.401 116.664 118.574C116.923 118.748 117.125 118.995 117.244 119.283C117.721 120.435 118.328 121.588 118.478 122.805C118.544 123.343 118.516 123.888 118.396 124.417C119.516 121.968 120.097 119.306 120.101 116.612C120.101 115.937 120.064 115.261 119.989 114.589C119.927 114.039 119.841 113.492 119.731 112.949C119.131 110.003 117.841 107.242 115.97 104.893C115.064 104.397 114.331 103.636 113.87 102.71C113.704 102.377 113.586 102.022 113.52 101.656C113.622 101.669 113.906 100.109 113.829 100.014C113.971 99.797 114.226 99.6893 114.381 99.478C115.155 98.4269 116.221 98.6104 116.777 100.039C117.966 100.64 117.977 101.637 117.248 102.596C116.784 103.206 116.72 104.032 116.313 104.685C116.355 104.738 116.399 104.79 116.44 104.844C117.206 105.831 117.873 106.89 118.433 108.007C118.297 106.756 118.459 105.49 118.907 104.314C119.36 103.217 120.21 102.294 120.958 101.346C121.156 101.092 121.425 100.902 121.731 100.8C122.037 100.699 122.366 100.69 122.676 100.776C122.987 100.862 123.265 101.038 123.475 101.282C123.686 101.526 123.82 101.827 123.86 102.148C123.861 102.162 123.863 102.176 123.864 102.19C123.753 102.252 123.644 102.319 123.538 102.39C123.404 102.479 123.3 102.607 123.24 102.757C123.18 102.907 123.167 103.071 123.202 103.228C123.236 103.386 123.318 103.529 123.435 103.639C123.553 103.749 123.7 103.821 123.859 103.846L123.876 103.848C123.836 104.25 123.766 104.648 123.666 105.039C124.627 108.76 122.554 110.116 119.593 110.177C119.528 110.21 119.464 110.244 119.399 110.276C119.961 111.872 120.314 113.535 120.448 115.222C120.524 116.218 120.519 117.218 120.435 118.213L120.44 118.177C120.654 117.071 121.243 116.073 122.107 115.352C123.389 114.295 125.202 113.907 126.586 113.058C126.733 112.963 126.904 112.912 127.079 112.912C127.254 112.912 127.425 112.961 127.572 113.055C127.72 113.149 127.838 113.283 127.911 113.442C127.985 113.601 128.012 113.777 127.989 113.951L127.984 113.988C127.777 114.072 127.577 114.169 127.382 114.279C127.271 114.341 127.162 114.408 127.056 114.479C126.922 114.568 126.818 114.696 126.758 114.846C126.699 114.996 126.685 115.16 126.72 115.317C126.755 115.475 126.836 115.618 126.954 115.728C127.071 115.838 127.219 115.91 127.378 115.935L127.394 115.938C127.406 115.939 127.416 115.941 127.428 115.943C127.075 116.786 126.58 117.562 125.965 118.238C125.365 121.487 122.786 121.795 120.027 120.849H120.026C119.723 122.167 119.285 123.45 118.717 124.677H114.043C114.026 124.625 114.011 124.571 113.996 124.519C114.429 124.546 114.863 124.52 115.289 124.442C114.943 124.015 114.596 123.586 114.249 123.159C114.241 123.151 114.234 123.143 114.227 123.134C114.051 122.916 113.874 122.699 113.698 122.481L113.698 122.48C113.688 121.811 113.765 121.144 113.926 120.494Z" fill="#F2F2F2"/>
<path d="M62.4422 20.1049C62.6129 20.364 62.8377 20.5829 63.101 20.7464C63.3644 20.9099 63.6601 21.0141 63.9676 21.0518C64.2751 21.0895 64.5871 21.0599 64.882 20.9648C65.177 20.8698 65.4478 20.7117 65.6758 20.5015L75.3939 24.8955L77.2675 22.5005L65.6871 17.3662C65.3055 17.0079 64.8059 16.8024 64.2832 16.7886C63.7605 16.7748 63.2509 16.9536 62.8509 17.2911C62.4509 17.6287 62.1884 18.1016 62.1131 18.6202C62.0378 19.1388 62.1549 19.667 62.4422 20.1049Z" fill="#A0616A"/>
<path d="M104.148 22.8449L105.112 28.3187C105.157 28.574 105.148 28.836 105.086 29.0878C105.024 29.3395 104.91 29.5755 104.752 29.7805C104.593 29.9856 104.394 30.1551 104.166 30.2784C103.939 30.4016 103.688 30.4758 103.43 30.4961L87.0521 31.7868L67.8009 23.1522L70.1002 18.7778L86.812 24.0815L104.148 22.8449Z" fill="#CB102F"/>
<path d="M65.8177 18.9221H6.93723C3.1059 18.9221 0 22.0348 0 25.8744V84.1315C0 87.9711 3.1059 91.0838 6.93723 91.0838H65.8177C69.649 91.0838 72.7549 87.9711 72.7549 84.1315V25.8744C72.7549 22.0348 69.649 18.9221 65.8177 18.9221Z" fill="#F2F2F2"/>
<path d="M6.93725 20.3518C6.2136 20.3518 5.49702 20.4946 4.82845 20.7722C4.15987 21.0497 3.55239 21.4565 3.04069 21.9693C2.52899 22.4821 2.12308 23.091 1.84614 23.761C1.56921 24.431 1.42668 25.1491 1.42668 25.8744V84.1315C1.42668 85.5962 2.00726 87.0009 3.04069 88.0366C4.07412 89.0723 5.47576 89.6541 6.93725 89.6541H44.5161C48.0371 89.6541 51.5236 88.9591 54.7766 87.6087C58.0296 86.2584 60.9853 84.2791 63.475 81.784C65.9647 79.2888 67.9397 76.3267 69.2871 73.0666C70.6345 69.8065 71.328 66.3124 71.328 62.7838V25.8744C71.328 25.1491 71.1855 24.431 70.9086 23.761C70.6316 23.091 70.2257 22.4821 69.714 21.9693C69.2023 21.4565 68.5949 21.0497 67.9263 20.7722C67.2577 20.4946 66.5411 20.3518 65.8175 20.3518H6.93725Z" fill="white"/>
<path d="M52.8371 38.0318H19.7888C19.4856 38.0318 19.1947 37.9111 18.9803 37.6962C18.7659 37.4813 18.6454 37.1898 18.6454 36.8859C18.6454 36.582 18.7659 36.2905 18.9803 36.0756C19.1947 35.8607 19.4856 35.74 19.7888 35.74H52.8371C53.1403 35.74 53.4312 35.8607 53.6456 36.0756C53.86 36.2905 53.9805 36.582 53.9805 36.8859C53.9805 37.1898 53.86 37.4813 53.6456 37.6962C53.4312 37.9111 53.1403 38.0318 52.8371 38.0318Z" fill="#F2F2F2"/>
<path d="M52.8371 62.4676H19.7888C19.4856 62.4676 19.1947 62.3468 18.9803 62.1319C18.7659 61.917 18.6454 61.6256 18.6454 61.3217C18.6454 61.0178 18.7659 60.7263 18.9803 60.5114C19.1947 60.2965 19.4856 60.1758 19.7888 60.1758H52.8371C53.1403 60.1758 53.4312 60.2965 53.6456 60.5114C53.86 60.7263 53.9805 61.0178 53.9805 61.3217C53.9805 61.6256 53.86 61.917 53.6456 62.1319C53.4312 62.3468 53.1403 62.4676 52.8371 62.4676Z" fill="#F2F2F2"/>
<path d="M66.2572 50.2576H6.36865C6.0654 50.2576 5.77458 50.1369 5.56015 49.922C5.34571 49.7071 5.22525 49.4156 5.22525 49.1117C5.22525 48.8078 5.34571 48.5163 5.56015 48.3014C5.77458 48.0865 6.0654 47.9658 6.36865 47.9658H66.2572C66.5604 47.9658 66.8513 48.0865 67.0657 48.3014C67.2801 48.5163 67.4006 48.8078 67.4006 49.1117C67.4006 49.4156 67.2801 49.7071 67.0657 49.922C66.8513 50.1369 66.5604 50.2576 66.2572 50.2576Z" fill="#F2F2F2"/>
<path d="M102.079 46.9708L96.1128 59.7087L119.063 57.3792L114.272 45.1511L102.079 46.9708Z" fill="#A0616A"/>
<path d="M107.415 120.184L105.239 120.165L104.275 111.558L107.487 111.585L107.415 120.184Z" fill="#A0616A"/>
<path d="M100.444 123.651C100.443 123.91 100.543 124.159 100.724 124.343C100.905 124.527 101.151 124.632 101.409 124.635L105.735 124.671L106.493 123.132L106.771 124.679L108.403 124.694L107.991 119.178L107.423 119.14L105.107 118.98L104.359 118.93L104.346 120.491L100.871 122.853C100.741 122.942 100.634 123.061 100.559 123.2C100.485 123.339 100.446 123.494 100.444 123.651Z" fill="#2F2E41"/>
<path d="M83.3338 120.193L81.2592 119.535L82.8619 111.024L85.9238 111.995L83.3338 120.193Z" fill="#A0616A"/>
<path d="M75.6552 121.456C75.5775 121.703 75.6007 121.97 75.7194 122.199C75.8382 122.429 76.043 122.602 76.2888 122.68L80.4135 123.989L81.5886 122.741L81.4011 124.301L82.9571 124.796L84.1801 119.402L83.6483 119.199L81.4809 118.364L80.7812 118.096L80.3112 119.584L76.2967 120.818C76.1463 120.865 76.0093 120.947 75.8976 121.058C75.7858 121.169 75.7027 121.306 75.6552 121.456Z" fill="#2F2E41"/>
<path d="M118.018 53.7971L97.1505 57.6291C97.1505 57.6291 93.8034 60.1382 94.6988 61.0368C95.5941 61.9354 95.733 61.7962 95.1448 62.3857C94.5565 62.9752 93.2846 63.7633 93.2721 64.2791C93.2596 64.7949 83.9215 87.9312 83.9215 87.9312C83.9215 87.9312 84.959 87.4112 84.1808 88.1911C83.4027 88.971 83.4027 89.6154 83.4027 89.6154L79.7712 114.187L85.6689 114.535L91.4438 92.1335L104.325 71.2058C104.325 71.2058 105.603 89.868 105.657 91.1092C105.71 92.3504 106.489 90.7907 105.71 92.3504C104.932 93.9102 104.413 92.8704 104.932 93.9102C105.451 94.95 103.063 116.12 103.063 116.12H108.447L119.992 72.241C119.992 72.241 124.1 59.6966 118.018 53.7971Z" fill="#2F2E41"/>
<path d="M111.871 18.7L103.512 17.8296L101.346 20.6473L98.8231 21.994C97.7555 22.5639 96.8742 23.4299 96.2847 24.4884C95.6952 25.547 95.4225 26.7534 95.4991 27.9632L98.4474 45.1513C98.4474 45.1513 95.957 50.7714 97.6693 52.1702C99.3815 53.569 96.3454 57.0332 100.004 55.2897C103.662 53.5461 119.458 55.5496 119.458 55.5496L116.086 45.9312L118.605 36.4798L118.882 28.5549C118.934 27.074 118.496 25.6176 117.635 24.4125C116.775 23.2075 115.541 22.3217 114.125 21.893L113.773 21.7864L111.871 18.7Z" fill="#CB102F"/>
<path d="M123.379 12.2778C123.433 14.639 122.553 16.9253 121.288 18.9335C120.912 17.7612 120.236 16.6942 119.532 15.677C119.887 17.8774 119.509 20.1337 118.455 22.0968C118.418 22.1235 118.38 22.1482 118.34 22.1709C117.309 22.7925 116.002 23.0442 114.887 22.5953C117.191 20.1058 117.484 15.981 115.552 13.1886C115.005 12.3962 114.298 11.6954 113.959 10.7937C113.424 9.35497 113.938 7.77088 114.263 6.27084C114.566 4.87476 114.619 3.21341 113.684 2.19026C113.784 2.04728 113.92 1.93346 114.078 1.86048C114.237 1.7875 114.411 1.75797 114.585 1.77492C115.161 1.85649 115.58 2.35843 115.847 2.8754C116.115 3.39236 116.291 3.96532 116.663 4.41184C117.352 5.2476 118.527 5.4452 119.516 5.88566C121.912 6.95529 123.321 9.65044 123.379 12.2778Z" fill="#2F2E41"/>
<path d="M61.6449 124.691C61.6448 124.731 61.6527 124.772 61.6681 124.809C61.6836 124.847 61.7063 124.881 61.735 124.91C61.7637 124.938 61.7978 124.961 61.8353 124.977C61.8728 124.992 61.913 125 61.9536 125H127.655C127.737 125 127.816 124.967 127.873 124.909C127.931 124.851 127.964 124.773 127.964 124.691C127.964 124.609 127.931 124.53 127.873 124.472C127.816 124.414 127.737 124.381 127.655 124.381H61.9536C61.913 124.381 61.8728 124.389 61.8353 124.405C61.7978 124.42 61.7637 124.443 61.735 124.472C61.7063 124.5 61.6836 124.535 61.6681 124.572C61.6527 124.61 61.6448 124.65 61.6449 124.691Z" fill="#CCCCCC"/>
<path d="M123.895 67.0035C125.185 67.0035 126.23 65.956 126.23 64.6638C126.23 63.3717 125.185 62.3242 123.895 62.3242C122.606 62.3242 121.561 63.3717 121.561 64.6638C121.561 65.956 122.606 67.0035 123.895 67.0035Z" fill="#E89D03"/>
<path d="M103.209 10.9279C103.346 10.4476 102.402 13.3835 102.857 13.4365C104.931 13.675 107.779 14.9165 109.224 15.4957C109.289 15.4881 109.354 15.4805 109.417 15.4711C109.572 15.454 109.723 15.4294 109.872 15.4011C113.236 14.7632 114.53 9.5845 114.53 9.53718C114.53 9.30437 113.972 2.91011 113.094 2.81549C112.863 2.7904 112.631 2.77776 112.399 2.77763H110.22C109.769 2.68023 109.312 2.61383 108.852 2.57889H108.848C104.46 2.24386 101.001 4.92402 101.324 8.18527C101.326 8.18905 101.33 8.19284 101.332 8.19663C101.425 8.3367 101.508 8.46919 101.58 8.59601C101.651 8.71525 101.71 8.82881 101.762 8.9367C102.162 9.76952 101.134 10.8175 101.816 11.0131C102.722 11.2732 99.4313 19.8239 103.02 19.8239C101.274 20.3213 102.831 12.2528 103.209 10.9279Z" fill="#2F2E41"/>
<path d="M107.126 15.945C109.975 15.945 112.286 13.6297 112.286 10.7735C112.286 7.9174 109.975 5.60205 107.126 5.60205C104.276 5.60205 101.965 7.9174 101.965 10.7735C101.965 13.6297 104.276 15.945 107.126 15.945Z" fill="#A0616A"/>
<path d="M101.324 8.46715C101.41 8.51257 101.494 8.5542 101.58 8.59585C101.67 8.63938 101.76 8.68292 101.85 8.72267C103.578 9.50817 104.984 9.59523 105.838 8.46715C105.861 7.87357 105.994 7.28945 106.23 6.74471C106.188 7.35347 106.348 7.95899 106.686 8.46715H108.404C110.174 9.64445 111.083 9.76748 109.854 13.6325C109.512 14.7095 108.15 20.9765 108.686 21.9058C108.841 21.8888 110.49 15.0245 110.639 14.9961C114.003 14.3583 116.14 8.80405 115.867 8.48986C115.868 7.59636 115.663 6.71467 115.268 5.91379C114.768 4.89913 113.988 4.04921 113.021 3.46455C112.445 3.1845 111.844 2.9583 111.226 2.78883C111.211 2.78504 111.198 2.78125 111.182 2.77747C110.993 2.72636 110.8 2.67904 110.606 2.63929C110.207 2.5548 109.803 2.4935 109.397 2.4557C109.368 2.4538 109.34 2.4519 109.313 2.4519C109.151 2.45228 108.991 2.49607 108.852 2.57873C108.85 2.57873 108.85 2.58061 108.848 2.58061C108.748 2.63908 108.661 2.71694 108.591 2.80963C108.469 2.96559 108.403 3.15835 108.404 3.35665H106.49C106.42 3.35665 106.349 3.35854 106.278 3.36232C105.001 3.40606 103.786 3.92584 102.871 4.81993C101.956 5.71403 101.407 6.91809 101.331 8.19648C101.326 8.28733 101.324 8.37628 101.324 8.46715Z" fill="#2F2E41"/>
<path d="M112.606 6.814C114.484 6.814 116.006 5.28863 116.006 3.407C116.006 1.52537 114.484 0 112.606 0C110.729 0 109.207 1.52537 109.207 3.407C109.207 5.28863 110.729 6.814 112.606 6.814Z" fill="#2F2E41"/>
<path d="M123.922 65.6286C124.088 65.3664 124.195 65.0712 124.236 64.7635C124.277 64.4557 124.25 64.1427 124.159 63.8462C124.067 63.5496 123.912 63.2765 123.705 63.0458C123.497 62.8152 123.242 62.6324 122.958 62.5101L122.975 51.8255L120.027 51.0942L120.099 63.7847C119.93 64.2804 119.947 64.8212 120.149 65.3047C120.351 65.7883 120.722 66.1809 121.193 66.4082C121.664 66.6355 122.202 66.6816 122.705 66.538C123.208 66.3943 123.641 66.0707 123.922 65.6286Z" fill="#A0616A"/>
<path d="M109.324 26.3797L113.912 23.2555C114.126 23.1097 114.368 23.0104 114.622 22.9639C114.877 22.9175 115.138 22.9249 115.39 22.9856C115.641 23.0464 115.877 23.1592 116.083 23.3169C116.288 23.4745 116.459 23.6734 116.583 23.9009L124.469 38.3438L124.499 59.4811L119.576 59.1718L117.554 41.721L109.324 26.3797Z" fill="#CB102F"/>
<path d="M74.0943 74.3159H25.0692C24.0028 74.3159 22.9802 74.7404 22.2262 75.4961C21.4722 76.2517 21.0486 77.2766 21.0486 78.3453C21.0486 79.4139 21.4722 80.4388 22.2262 81.1944C22.9802 81.9501 24.0028 82.3746 25.0692 82.3746H74.0943C75.1606 82.3746 76.1833 81.9501 76.9373 81.1944C77.6913 80.4388 78.1148 79.4139 78.1148 78.3453C78.1148 77.2766 77.6913 76.2517 76.9373 75.4961C76.1833 74.7404 75.1606 74.3159 74.0943 74.3159Z" fill="white"/>
<path d="M74.0942 82.6345H25.0691C23.934 82.6345 22.8454 82.1826 22.0427 81.3782C21.2401 80.5738 20.7892 79.4828 20.7892 78.3452C20.7892 77.2076 21.2401 76.1166 22.0427 75.3122C22.8454 74.5078 23.934 74.0559 25.0691 74.0559H74.0942C75.2293 74.0559 76.3179 74.5078 77.1206 75.3122C77.9232 76.1166 78.3741 77.2076 78.3741 78.3452C78.3741 79.4828 77.9232 80.5738 77.1206 81.3782C76.3179 82.1826 75.2293 82.6345 74.0942 82.6345ZM25.0691 74.5758C24.0716 74.5758 23.1149 74.973 22.4096 75.6798C21.7042 76.3867 21.3079 77.3455 21.3079 78.3452C21.3079 79.3449 21.7042 80.3037 22.4096 81.0106C23.1149 81.7174 24.0716 82.1146 25.0691 82.1146H74.0942C75.0917 82.1146 76.0484 81.7174 76.7537 81.0106C77.4591 80.3037 77.8553 79.3449 77.8553 78.3452C77.8553 77.3455 77.4591 76.3867 76.7537 75.6798C76.0484 74.973 75.0917 74.5758 74.0942 74.5758H25.0691Z" fill="#CB102F"/>
<path d="M76.9849 91.9002H55.35C55.0467 91.9002 54.7559 91.7795 54.5415 91.5646C54.3271 91.3497 54.2066 91.0582 54.2066 90.7543C54.2066 90.4504 54.3271 90.1589 54.5415 89.944C54.7559 89.7291 55.0467 89.6084 55.35 89.6084H76.9849C77.2882 89.6084 77.579 89.7291 77.7934 89.944C78.0079 90.1589 78.1283 90.4504 78.1283 90.7543C78.1283 91.0582 78.0079 91.3497 77.7934 91.5646C77.579 91.7795 77.2882 91.9002 76.9849 91.9002Z" fill="#CB102F"/>
</g>
<defs>
<clipPath id="clip0_122_349">
<rect width="128" height="125" fill="white"/>
</clipPath>
</defs>
</svg>
